# xmcd
#
# Track frame offsets: 
#        150
#        17512
#        38886
#        62213
#        82574
#        92252
#        116099
#
# Disc length: 1859 seconds
#
# Revision: 0
# Processed by: cddbd v1.5.2PL0 Copyright (c) Steve Scherf et al.
# Submitted via: ExactAudioCopyFreeDBPlugin 1.0
#
DISCID=44074107
DTITLE=おやすみホログラム - 3
DYEAR=2016
DGENRE=Punk
TTITLE0=fairytale
TTITLE1=真昼のダンス
TTITLE2=planet
TTITLE3=friday
TTITLE4=sister (interlude)
TTITLE5=sea song
TTITLE6=empty page
EXTD=
EXTT0=
EXTT1=
EXTT2=
EXTT3=
EXTT4=
EXTT5=
EXTT6=
PLAYORDER=
